<svg id="visual" viewBox="0 0 550 550" width="550" height="550" xmlns="http://www.w3.org/2000/svg" xmlns:xlink="http://www.w3.org/1999/xlink" version="1.1"><rect x="0" y="0" width="550" height="550" fill="#fbebfc"></rect><defs><linearGradient id="grad1_0" x1="0%" y1="0%" x2="100%" y2="100%"><stop offset="30%" stop-color="#ffcbfa" stop-opacity="1"></stop><stop offset="70%" stop-color="#ffcbfa" stop-opacity="1"></stop></linearGradient></defs><defs><linearGradient id="grad1_1" x1="0%" y1="0%" x2="100%" y2="100%"><stop offset="30%" stop-color="#ffcbfa" stop-opacity="1"></stop><stop offset="70%" stop-color="#fddbfc" stop-opacity="1"></stop></linearGradient></defs><defs><linearGradient id="grad1_2" x1="0%" y1="0%" x2="100%" y2="100%"><stop offset="30%" stop-color="#fbebfc" stop-opacity="1"></stop><stop offset="70%" stop-color="#fddbfc" stop-opacity="1"></stop></linearGradient></defs><defs><linearGradient id="grad2_0" x1="0%" y1="0%" x2="100%" y2="100%"><stop offset="30%" stop-color="#ffcbfa" stop-opacity="1"></stop><stop offset="70%" stop-color="#ffcbfa" stop-opacity="1"></stop></linearGradient></defs><defs><linearGradient id="grad2_1" x1="0%" y1="0%" x2="100%" y2="100%"><stop offset="30%" stop-color="#fddbfc" stop-opacity="1"></stop><stop offset="70%" stop-color="#ffcbfa" stop-opacity="1"></stop></linearGradient></defs><defs><linearGradient id="grad2_2" x1="0%" y1="0%" x2="100%" y2="100%"><stop offset="30%" stop-color="#fddbfc" stop-opacity="1"></stop><stop offset="70%" stop-color="#fbebfc" stop-opacity="1"></stop></linearGradient></defs><g transform="translate(550, 0)"><path d="M0 252.8C-27 235.5 -54 218.2 -86.5 208.8C-118.9 199.4 -156.9 198 -178.7 178.8C-200.6 159.5 -206.5 122.3 -216.2 89.5C-225.9 56.8 -239.3 28.4 -252.8 0L0 0Z" fill="#fce3fc"></path><path d="M0 168.5C-18 157 -36 145.4 -57.7 139.2C-79.3 133 -104.6 132 -119.2 119.2C-133.8 106.3 -137.7 81.5 -144.1 59.7C-150.6 37.9 -159.5 18.9 -168.5 0L0 0Z" fill="#fed3fb"></path><path d="M0 84.3C-9 78.5 -18 72.7 -28.8 69.6C-39.6 66.5 -52.3 66 -59.6 59.6C-66.9 53.2 -68.8 40.8 -72.1 29.8C-75.3 18.9 -79.8 9.5 -84.3 0L0 0Z" fill="#ffcbfa"></path></g><g transform="translate(0, 550)"><path d="M0 -252.8C35.9 -252 71.8 -251.1 96.7 -233.5C121.7 -216 135.6 -181.6 157 -157C178.4 -132.4 207.3 -117.5 224.5 -93C241.7 -68.5 247.3 -34.2 252.8 0L0 0Z" fill="#fce3fc"></path><path d="M0 -168.5C23.9 -168 47.9 -167.4 64.5 -155.7C81.1 -144 90.4 -121.1 104.7 -104.7C118.9 -88.2 138.2 -78.4 149.7 -62C161.1 -45.6 164.8 -22.8 168.5 0L0 0Z" fill="#fed3fb"></path><path d="M0 -84.3C12 -84 23.9 -83.7 32.2 -77.8C40.6 -72 45.2 -60.5 52.3 -52.3C59.5 -44.1 69.1 -39.2 74.8 -31C80.6 -22.8 82.4 -11.4 84.3 0L0 0Z" fill="#ffcbfa"></path></g></svg>