<svg id="visual" viewBox="0 0 550 550" width="550" height="550" xmlns="http://www.w3.org/2000/svg" xmlns:xlink="http://www.w3.org/1999/xlink" version="1.1"><rect x="0" y="0" width="550" height="550" fill="#f7f2ff"></rect><defs><linearGradient id="grad1_0" x1="0%" y1="0%" x2="100%" y2="100%"><stop offset="30%" stop-color="#f7f2ff" stop-opacity="1"></stop><stop offset="70%" stop-color="#f7f2ff" stop-opacity="1"></stop></linearGradient></defs><defs><linearGradient id="grad2_0" x1="0%" y1="0%" x2="100%" y2="100%"><stop offset="30%" stop-color="#f7f2ff" stop-opacity="1"></stop><stop offset="70%" stop-color="#f7f2ff" stop-opacity="1"></stop></linearGradient></defs><g transform="translate(550, 0)"><path d="M0 116.7C-15.4 113.7 -30.8 110.7 -42.9 103.5C-54.9 96.3 -63.6 84.8 -75 75C-86.3 65.1 -100.4 56.9 -107.8 44.6C-115.2 32.4 -115.9 16.2 -116.7 0L0 0Z" fill="#d9c0ff"></path></g><g transform="translate(0, 550)"><path d="M0 -116.7C15.9 -116 31.8 -115.3 44.6 -107.8C57.5 -100.3 67.1 -85.9 72.8 -72.8C78.5 -59.7 80.2 -47.9 86.8 -36C93.5 -24 105.1 -12 116.7 0L0 0Z" fill="#d9c0ff"></path></g></svg>