<svg id="visual" viewBox="0 0 550 550" width="550" height="550" xmlns="http://www.w3.org/2000/svg" xmlns:xlink="http://www.w3.org/1999/xlink" version="1.1"><rect x="0" y="0" width="550" height="550" fill="#f5fbff"></rect><defs><linearGradient id="grad1_0" x1="0%" y1="0%" x2="100%" y2="100%"><stop offset="30%" stop-color="#f5fbff" stop-opacity="1"></stop><stop offset="70%" stop-color="#f5fbff" stop-opacity="1"></stop></linearGradient></defs><defs><linearGradient id="grad2_0" x1="0%" y1="0%" x2="100%" y2="100%"><stop offset="30%" stop-color="#f5fbff" stop-opacity="1"></stop><stop offset="70%" stop-color="#f5fbff" stop-opacity="1"></stop></linearGradient></defs><g transform="translate(550, 0)"><path d="M0 151C-21.8 156.8 -43.7 162.5 -65.8 158.9C-88 155.3 -110.5 142.3 -123.7 123.8C-137 105.2 -141 81.2 -144.1 59.7C-147.3 38.2 -149.6 19.1 -152 0L0 0Z" fill="#d7deff"></path></g><g transform="translate(0, 550)"><path d="M0 -175C22.9 -169.8 45.9 -164.6 63.5 -153.4C81.2 -142.1 93.6 -124.8 109.6 -109.6C125.6 -94.4 145.2 -81.4 153.4 -63.5C161.5 -45.6 158.3 -22.8 155 0L0 0Z" fill="#d7deff"></path></g></svg>